<svg width="74" height="74" viewBox="0 0 74 74" fill="none" xmlns="http://www.w3.org/2000/svg">
<path d="M37 46.8666C42.4492 46.8666 46.8666 42.4492 46.8666 37C46.8666 31.5508 42.4492 27.1333 37 27.1333C31.5508 27.1333 27.1333 31.5508 27.1333 37C27.1333 42.4492 31.5508 46.8666 37 46.8666Z" fill="#96247D"/>
<path d="M27.7501 6.16675L22.1076 12.3334H12.3334C8.94175 12.3334 6.16675 15.1084 6.16675 18.5001V55.5001C6.16675 58.8917 8.94175 61.6667 12.3334 61.6667H61.6668C65.0584 61.6667 67.8334 58.8917 67.8334 55.5001V18.5001C67.8334 15.1084 65.0584 12.3334 61.6668 12.3334H51.8926L46.2501 6.16675H27.7501ZM37.0001 52.4167C28.4901 52.4167 21.5834 45.5101 21.5834 37.0001C21.5834 28.4901 28.4901 21.5834 37.0001 21.5834C45.5101 21.5834 52.4168 28.4901 52.4168 37.0001C52.4168 45.5101 45.5101 52.4167 37.0001 52.4167Z" fill="#96247D"/>
</svg>
